# xmcd CD database file
#
# Track frame offsets:
#        182
#        16627
#        31640
#        45990
#        60817
#        84862
#        103920
#        129050
#        146837
#        157245
#        171577
#        185140
#
# Disc length: 2704 seconds
#
# Revision: 0
# Processed by: cddbd v1.5.2PL0 Copyright (c) Steve Scherf et al.
# Submitted via: CUERipper 2.1.5
#
DISCID=900a8e0c
DTITLE=Tony Joe White - The Best Of Tony Joe White
DYEAR=1994
DGENRE=
TTITLE0=Rainy Night In Georgia
TTITLE1=For Le Ann
TTITLE2=Old Man Willis
TTITLE3=Woman With Soul
TTITLE4=I Want You
TTITLE5=I Thought I Knew You Well
TTITLE6=Stud-Spider
TTITLE7=Conjure Woman
TTITLE8=Save Your Sugar For Me
TTITLE9=Who's Making Love
TTITLE10=Scratch My Back
TTITLE11=Little Green Apples
EXTD=
EXTT0=
EXTT1=
EXTT2=
EXTT3=
EXTT4=
EXTT5=
EXTT6=
EXTT7=
EXTT8=
EXTT9=
EXTT10=
EXTT11=
PLAYORDER=
